<?xml version="1.0" encoding="UTF-8" standalone="no"?><!DOCTYPE svg PUBLIC "-//W3C//DTD SVG 1.1//EN" "http://www.w3.org/Graphics/SVG/1.1/DTD/svg11.dtd"><svg width="100%" height="100%" viewBox="0 0 24579 24579" version="1.1" xmlns="http://www.w3.org/2000/svg" xmlns:xlink="http://www.w3.org/1999/xlink" xml:space="preserve" xmlns:serif="http://www.serif.com/" style="fill-rule:evenodd;clip-rule:evenodd;stroke-linejoin:round;stroke-miterlimit:2;"><g><clipPath id="_clip1"><path d="M22220.3,22474.8c39.25,44.571 71.467,94.871 95.542,149.163c164.096,368.425 162.429,796.608 -17.942,1170.1c-43.141,89.333 -95.087,172.6 -154.508,248.971c-281.733,363.567 -769.767,497.296 -1197.48,328.129c-1777.82,-678.375 -4121.32,-1282.03 -5670.04,-2145.85c-3011.18,-1679.54 -5084.67,-3283.28 -3646.17,-7731.29c26.137,-80.883 98.816,-137.754 183.608,-143.671c1805.77,-137.108 3410.4,-1392.19 3905.72,-3240.75c160.85,-600.312 312.229,-1165.26 432.775,-1615.15c70.858,-264.441 33.762,-546.2 -103.121,-783.291c-136.887,-237.092 -362.35,-410.096 -626.792,-480.95l-422.679,-113.259l878.492,-3278.58c50.45,-188.271 24.037,-388.875 -73.417,-557.675c-97.458,-168.8 -257.979,-291.971 -446.25,-342.417c-188.271,-50.45 -388.875,-24.037 -557.675,73.417c-168.8,97.458 -291.971,257.979 -342.417,446.25l-878.491,3278.58l-2798.55,-749.866l878.496,-3278.58c50.446,-188.27 24.037,-388.87 -73.421,-557.67c-97.454,-168.8 -257.975,-291.975 -446.25,-342.421c-0.133,-0.038 -0.267,-0.071 -0.404,-0.109c-188.163,-50.42 -388.65,-24.025 -557.354,73.38c-168.705,97.4 -291.805,257.829 -342.225,445.991l-878.6,3278.99l-422.68,-113.259c-264.441,-70.858 -546.2,-33.762 -783.291,103.121c-237.092,136.884 -410.096,362.346 -480.954,626.788c-120.55,449.896 -271.925,1014.84 -432.78,1615.15c-478.375,1785.33 216.125,3608.6 1611.15,4651.71c72.388,53.388 102.25,147.258 74.017,232.658c-1703.7,5158.5 390.771,7695.62 2376.2,9282.33c413.808,330.704 866.538,642.421 1340.64,931.604c132.242,81.067 194.483,240.15 152.367,389.433c-42.117,149.284 -178.326,252.384 -333.434,252.384c-2837.28,0.771 -9198.54,0.771 -9198.54,0.771c-767.062,-0 -1388.89,-621.825 -1388.89,-1388.89l-0,-21800.2c-0,-368.533 146.471,-721.962 407.162,-982.458c260.692,-260.496 614.23,-406.704 982.763,-406.429c3609.17,2.7 13000,9.721 13000,9.721c1636.03,-0 3205.06,649.912 4361.92,1806.76c1156.85,1156.85 1806.76,2725.88 1806.76,4361.92l0,4450.75c0,1636.03 -649.912,3205.06 -1806.76,4361.92c-1493.46,1493.45 -1569.55,3890.3 -173.821,5475.46c878.3,997.517 1579.65,1794.05 1767.36,2007.25l-0.004,0.041Z"/></clipPath><g clip-path="url(#_clip1)"><rect x="0" y="0" width="24579" height="24579" style="fill:url(#_Linear2);"/></g></g><defs><linearGradient id="_Linear2" x1="0" y1="0" x2="1" y2="0" gradientUnits="userSpaceOnUse" gradientTransform="matrix(24579,-24579,24579,24579,0,24579)"><stop offset="0" style="stop-color:#ff203e;stop-opacity:1"/><stop offset="1" style="stop-color:#5006ff;stop-opacity:1"/></linearGradient></defs></svg>