<svg width="1024" height="1225" viewBox="0 0 1024 1225" fill="none" xmlns="http://www.w3.org/2000/svg">
<path d="M1009.4 1114.88C1016.67 1123.14 1021.45 1133.3 1023.18 1144.17C1025.29 1157.81 1023.35 1172.03 1017.11 1184.95C1014.96 1189.4 1012.37 1193.55 1009.41 1197.35C995.383 1215.46 971.077 1222.12 949.776 1213.69C861.237 1179.91 744.524 1149.84 667.395 1106.82C517.431 1023.18 414.167 943.308 485.808 721.788C487.109 717.759 490.73 714.927 494.952 714.633C584.884 707.804 664.797 645.298 689.465 553.235C697.477 523.338 705.016 495.203 711.019 472.797C714.548 459.627 712.701 445.594 705.883 433.787C699.066 421.98 687.838 413.363 674.668 409.835L653.618 404.195L697.368 240.914C699.88 231.538 698.566 221.546 693.712 213.14C688.858 204.733 680.864 198.599 671.488 196.086C662.112 193.574 652.12 194.89 643.715 199.744C635.307 204.596 629.173 212.59 626.661 221.968L582.911 385.249L443.537 347.904L487.287 184.623C489.799 175.245 488.483 165.256 483.631 156.85C478.777 148.442 470.783 142.308 461.407 139.796C461.4 139.794 461.393 139.792 461.386 139.791C452.015 137.28 442.03 138.594 433.628 143.445C425.227 148.295 419.095 156.286 416.585 165.657L372.829 328.957L351.778 323.318C338.608 319.788 324.576 321.635 312.767 328.453C300.96 335.27 292.345 346.498 288.816 359.668C282.812 382.074 275.274 410.209 267.262 440.106C243.438 529.02 278.025 619.823 347.501 671.773C351.107 674.433 352.594 679.107 351.188 683.361C266.339 940.265 370.649 1066.62 469.527 1145.64C490.136 1162.11 512.684 1177.64 536.295 1192.04C542.88 1196.08 545.981 1204 543.883 1211.43C541.786 1218.87 535.002 1224 527.277 1224C385.975 1224.04 69.1699 1224.04 69.1699 1224.04C30.9674 1224.04 0 1193.07 0 1154.87C0 939.793 0 284.32 0 69.17C0 50.8174 7.29397 33.2154 20.2772 20.2426C33.2604 7.26807 50.8676 -0.0138143 69.2201 1.96752e-05C248.967 0.134901 716.649 0.484207 716.649 0.484207C798.126 0.484207 876.267 32.8523 933.882 90.4656C991.496 148.079 1023.86 226.22 1023.86 307.699C1023.86 379.997 1023.86 457.061 1023.86 529.358C1023.86 610.836 991.496 688.978 933.882 746.591C859.504 820.969 855.715 940.338 925.226 1019.28C964.298 1063.66 996.339 1100.05 1009.4 1114.88Z" fill="#7289DA"/>
</svg>
